<svg id="Layer_1" data-name="Layer 1" xmlns="http://www.w3.org/2000/svg" xmlns:xlink="http://www.w3.org/1999/xlink" viewBox="0 0 2580 741.61">
  <defs>
    <style>
      .cls-1 {
        fill: #fff;
      }

      .cls-2 {
        font-size: 213.29px;
        font-family: Arial-BoldMT, Arial;
        font-weight: 700;
      }

      .cls-3 {
        fill: url(#radial-gradient);
      }
    </style>
    <radialGradient id="radial-gradient" cx="709.87" cy="433.6" r="367.83" gradientUnits="userSpaceOnUse">
      <stop offset="0" stop-color="#6b57ec"/>
      <stop offset="1" stop-color="#a793ff"/>
    </radialGradient>
  </defs>
  <rect class="cls-1" width="2580" height="741.61"/>
  <g>
    <text class="cls-2" transform="translate(1200.27 439.05)">OpenBook</text>
    <path class="cls-3" d="M966.22,268.26c-.21.79-1.19,1.28-2.21,1.52a142.18,142.18,0,0,0-35.89-4.87c-55.18,0-93.85,41.5-134.81,81.36l-4.48,4.37c-2.58,2.4-5.2,4.91-7.87,7.46-16.41,15.66-35,33.43-56.05,38.25a5.22,5.22,0,0,1-1.23.14c-2.48,0-4.64-1.75-4.64-3.75a4,4,0,0,1,3.29-3.58c21.95-5,40.5-29,62-56.85,25-32.37,53.34-72.89,91.1-81a129.89,129.89,0,0,1,28.29-3.07c22.86,0,44.55,5.81,61.18,16.37A4.4,4.4,0,0,1,966.22,268.26Zm81.57,77.42c-7-18.39-21-33.61-40.52-44C989.52,292.17,967.66,287,945.69,287c-14.83,0-29.07,2.38-41.2,6.89l-.15.06-.17.05c-32.41,9.67-65.28,37.06-97.07,63.56-29.64,24.7-57.62,48-82.3,53.76-3.29.76-5.67,4.07-5.67,7.89,0,4.48,3.24,8.11,7.23,8.11a6.15,6.15,0,0,0,1.69-.23c25.07-6.59,53.91-27.26,77.08-43.87,8.3-6,15.48-11.1,21.69-15,29.43-20.2,75.25-44.24,126.58-44.24A143.9,143.9,0,0,1,1031.14,346a3.43,3.43,0,0,1,.48.33c5.28,3.92,10.77,6.45,14,6.45.37,0,1.26,0,1.54-.41C1047.27,352.25,1048.26,350.85,1047.79,345.68Zm0,0c-7-18.39-21-33.61-40.52-44C989.52,292.17,967.66,287,945.69,287c-14.83,0-29.07,2.38-41.2,6.89l-.15.06-.17.05c-32.41,9.67-65.28,37.06-97.07,63.56-29.64,24.7-57.62,48-82.3,53.76-3.29.76-5.67,4.07-5.67,7.89,0,4.48,3.24,8.11,7.23,8.11a6.15,6.15,0,0,0,1.69-.23c25.07-6.59,53.91-27.26,77.08-43.87,8.3-6,15.48-11.1,21.69-15,29.43-20.2,75.25-44.24,126.58-44.24A143.9,143.9,0,0,1,1031.14,346a3.43,3.43,0,0,1,.48.33c5.28,3.92,10.77,6.45,14,6.45.37,0,1.26,0,1.54-.41C1047.27,352.25,1048.26,350.85,1047.79,345.68Zm9.43,40.56c-32.21-19.47-72.44-32-102.48-32h-.59c-1.89-.06-3.82-.08-5.73-.08-59.93,0-114.89,31.63-168,62.21l-2.29,1.32c-15.89,9.09-34.33,19.09-51.77,22.76a9.5,9.5,0,0,0-7.19,9.5,10.29,10.29,0,0,0,2.52,6.84,8,8,0,0,0,6,2.8,9.61,9.61,0,0,0,1.07-.07c24.17-3.39,48.37-14.38,74-26,36.55-16.61,78-35.41,128.1-35.41,57.82,0,118.27,25.1,184.82,76.77a3.9,3.9,0,0,0,2,.77c1.38,0,3.18-2.78,3.55-6.54C1116.81,428,1079.25,399.54,1057.22,386.24Zm0,0c-32.21-19.47-72.44-32-102.48-32h-.59c-1.89-.06-3.82-.08-5.73-.08-59.93,0-114.89,31.63-168,62.21l-2.29,1.32c-15.89,9.09-34.33,19.09-51.77,22.76a9.5,9.5,0,0,0-7.19,9.5,10.29,10.29,0,0,0,2.52,6.84,8,8,0,0,0,6,2.8,9.61,9.61,0,0,0,1.07-.07c24.17-3.39,48.37-14.38,74-26,36.55-16.61,78-35.41,128.1-35.41,57.82,0,118.27,25.1,184.82,76.77a3.9,3.9,0,0,0,2,.77c1.38,0,3.18-2.78,3.55-6.54C1116.81,428,1079.25,399.54,1057.22,386.24Zm-600.91-118c.2.79,1.18,1.28,2.2,1.52a142.18,142.18,0,0,1,35.89-4.87c55.18,0,93.85,41.5,134.81,81.36l4.48,4.37c2.58,2.4,5.2,4.91,7.87,7.46,16.41,15.66,35,33.43,56.05,38.25a5.22,5.22,0,0,0,1.23.14c2.48,0,4.64-1.75,4.64-3.75a4,4,0,0,0-3.28-3.58c-22-5-40.51-29-62-56.85-25-32.37-53.34-72.89-91.1-81a129.89,129.89,0,0,0-28.29-3.07c-22.86,0-44.54,5.81-61.18,16.37A4.35,4.35,0,0,0,456.31,268.26ZM375.37,352.4c.28.37,1.17.41,1.54.41,3.22,0,8.71-2.53,14-6.45a3.43,3.43,0,0,1,.48-.33,143.9,143.9,0,0,1,77.74-22.13c51.33,0,97.15,24,126.58,44.24,6.21,3.93,13.39,9.07,21.69,15,23.17,16.61,52,37.28,77.08,43.87a6.15,6.15,0,0,0,1.69.23c4,0,7.23-3.63,7.23-8.11,0-3.82-2.38-7.13-5.67-7.89-24.68-5.72-52.66-29.06-82.3-53.76C583.63,331,550.76,303.62,518.35,294l-.17-.05-.15-.06c-12.13-4.51-26.37-6.89-41.2-6.89-22,0-43.83,5.22-61.58,14.71-19.49,10.41-33.5,25.63-40.52,44C374.26,350.85,375.25,352.25,375.37,352.4Zm0,0c.28.37,1.17.41,1.54.41,3.22,0,8.71-2.53,14-6.45a3.43,3.43,0,0,1,.48-.33,143.9,143.9,0,0,1,77.74-22.13c51.33,0,97.15,24,126.58,44.24,6.21,3.93,13.39,9.07,21.69,15,23.17,16.61,52,37.28,77.08,43.87a6.15,6.15,0,0,0,1.69.23c4,0,7.23-3.63,7.23-8.11,0-3.82-2.38-7.13-5.67-7.89-24.68-5.72-52.66-29.06-82.3-53.76C583.63,331,550.76,303.62,518.35,294l-.17-.05-.15-.06c-12.13-4.51-26.37-6.89-41.2-6.89-22,0-43.83,5.22-61.58,14.71-19.49,10.41-33.5,25.63-40.52,44C374.26,350.85,375.25,352.25,375.37,352.4ZM301.43,469.05c.38,3.76,2.17,6.54,3.55,6.54a3.9,3.9,0,0,0,2-.77c66.55-51.67,127-76.77,184.82-76.77,50.12,0,91.55,18.8,128.1,35.41,25.62,11.63,49.81,22.62,74,26a9.61,9.61,0,0,0,1.07.07,8,8,0,0,0,6-2.8,10.29,10.29,0,0,0,2.52-6.84c0-4.63-3-8.63-7.18-9.5-17.45-3.67-35.88-13.67-51.78-22.76l-2.29-1.32C589,385.74,534,354.11,474.1,354.11c-1.91,0-3.83,0-5.73.08h-.59c-30,0-70.27,12.57-102.48,32C343.27,399.54,305.71,428,301.43,469.05Zm0,0c.38,3.76,2.17,6.54,3.55,6.54a3.9,3.9,0,0,0,2-.77c66.55-51.67,127-76.77,184.82-76.77,50.12,0,91.55,18.8,128.1,35.41,25.62,11.63,49.81,22.62,74,26a9.61,9.61,0,0,0,1.07.07,8,8,0,0,0,6-2.8,10.29,10.29,0,0,0,2.52-6.84c0-4.63-3-8.63-7.18-9.5-17.45-3.67-35.88-13.67-51.78-22.76l-2.29-1.32C589,385.74,534,354.11,474.1,354.11c-1.91,0-3.83,0-5.73.08h-.59c-30,0-70.27,12.57-102.48,32C343.27,399.54,305.71,428,301.43,469.05Z"/>
  </g>
</svg>
