<?xml version="1.0" encoding="utf-8"?>
<!-- Generator: Adobe Illustrator 24.3.0, SVG Export Plug-In . SVG Version: 6.00 Build 0)  -->
<svg version="1.1" baseProfile="basic" id="Layer_1"
	 xmlns="http://www.w3.org/2000/svg" xmlns:xlink="http://www.w3.org/1999/xlink" x="0px" y="0px" viewBox="0 0 2000 2000"
	 xml:space="preserve">
<rect y="0" fill="#FFFFFF" width="2000" height="2000"/>
<radialGradient id="SVGID_1_" cx="997.3245" cy="1117.9799" r="708.289" gradientUnits="userSpaceOnUse">
	<stop  offset="0" style="stop-color:#6B57EC"/>
	<stop  offset="1" style="stop-color:#A793FF"/>
</radialGradient>
<path fill="url(#SVGID_1_)" d="M1490.9,799.6c-0.4,1.5-2.3,2.5-4.3,2.9c-23.8-6.2-47.1-9.4-69.1-9.4
	c-106.2,0-180.7,79.9-259.6,156.7l-8.6,8.4c-5,4.6-10,9.5-15.2,14.4c-31.6,30.2-67.4,64.4-107.9,73.6c-0.8,0.2-1.6,0.3-2.4,0.3
	c-4.8,0-8.9-3.4-8.9-7.2c0-3.1,2.7-6.1,6.3-6.9c42.3-9.6,78-55.9,119.4-109.5c48.1-62.3,102.7-140.3,175.4-155.9
	c17.6-3.9,35.9-5.9,54.5-5.9c44,0,85.8,11.2,117.8,31.5C1490.6,795.1,1491.4,798,1490.9,799.6z M1648,948.7
	c-13.5-35.4-40.5-64.7-78-84.8c-34.2-18.3-76.3-28.3-118.6-28.3c-28.6,0-56,4.6-79.3,13.3l-0.3,0.1l-0.3,0.1
	c-62.4,18.6-125.7,71.4-186.9,122.4c-57.1,47.6-111,92.5-158.5,103.5c-6.3,1.5-10.9,7.9-10.9,15.2c0,8.6,6.2,15.6,13.9,15.6
	c1.1,0,2.2-0.1,3.3-0.4c48.3-12.7,103.8-52.5,148.4-84.5c16-11.5,29.8-21.4,41.8-29c56.7-38.9,144.9-85.2,243.7-85.2
	c54.3,0,104.6,14.3,149.7,42.6c0.3,0.2,0.6,0.4,0.9,0.6c10.2,7.5,20.7,12.4,26.9,12.4c0.7,0,2.4-0.1,3-0.8
	C1647,961.3,1648.9,958.6,1648,948.7z M1648,948.7c-13.5-35.4-40.5-64.7-78-84.8c-34.2-18.3-76.3-28.3-118.6-28.3
	c-28.6,0-56,4.6-79.3,13.3l-0.3,0.1l-0.3,0.1c-62.4,18.6-125.7,71.4-186.9,122.4c-57.1,47.6-111,92.5-158.5,103.5
	c-6.3,1.5-10.9,7.9-10.9,15.2c0,8.6,6.2,15.6,13.9,15.6c1.1,0,2.2-0.1,3.3-0.4c48.3-12.7,103.8-52.5,148.4-84.5
	c16-11.5,29.8-21.4,41.8-29c56.7-38.9,144.9-85.2,243.7-85.2c54.3,0,104.6,14.3,149.7,42.6c0.3,0.2,0.6,0.4,0.9,0.6
	c10.2,7.5,20.7,12.4,26.9,12.4c0.7,0,2.4-0.1,3-0.8C1647,961.3,1648.9,958.6,1648,948.7z M1666.2,1026.8
	c-62-37.5-139.5-61.7-197.3-61.7l-1.1,0c-3.6-0.1-7.3-0.2-11-0.2c-115.4,0-221.2,60.9-323.6,119.8l-4.4,2.5
	c-30.6,17.5-66.1,36.8-99.7,43.8c-8,1.7-13.8,9.4-13.8,18.3c0,5,1.7,9.7,4.9,13.2c3.1,3.5,7.2,5.4,11.5,5.4c0.7,0,1.4,0,2.1-0.1
	c46.5-6.5,93.1-27.7,142.5-50.1c70.4-32,150.2-68.2,246.7-68.2c111.3,0,227.7,48.3,355.9,147.8c1.4,1,2.8,1.5,3.8,1.5
	c2.7,0,6.1-5.4,6.8-12.6C1780.9,1107.2,1708.6,1052.4,1666.2,1026.8z M1666.2,1026.8c-62-37.5-139.5-61.7-197.3-61.7l-1.1,0
	c-3.6-0.1-7.3-0.2-11-0.2c-115.4,0-221.2,60.9-323.6,119.8l-4.4,2.5c-30.6,17.5-66.1,36.8-99.7,43.8c-8,1.7-13.8,9.4-13.8,18.3
	c0,5,1.7,9.7,4.9,13.2c3.1,3.5,7.2,5.4,11.5,5.4c0.7,0,1.4,0,2.1-0.1c46.5-6.5,93.1-27.7,142.5-50.1c70.4-32,150.2-68.2,246.7-68.2
	c111.3,0,227.7,48.3,355.9,147.8c1.4,1,2.8,1.5,3.8,1.5c2.7,0,6.1-5.4,6.8-12.6C1780.9,1107.2,1708.6,1052.4,1666.2,1026.8z
	 M509.1,799.6c0.4,1.5,2.3,2.5,4.3,2.9c23.8-6.2,47.1-9.4,69.1-9.4c106.2,0,180.7,79.9,259.6,156.7l8.6,8.4c5,4.6,10,9.5,15.2,14.4
	c31.6,30.2,67.4,64.4,107.9,73.6c0.8,0.2,1.6,0.3,2.4,0.3c4.8,0,8.9-3.4,8.9-7.2c0-3.1-2.7-6.1-6.3-6.9
	c-42.3-9.6-78-55.9-119.4-109.5C811.2,860.6,756.6,782.6,683.9,767c-17.6-3.9-35.9-5.9-54.5-5.9c-44,0-85.8,11.2-117.8,31.5
	C509.4,795.1,508.6,798,509.1,799.6z M353.2,961.6c0.6,0.7,2.3,0.8,3,0.8c6.2,0,16.8-4.9,26.9-12.4c0.3-0.2,0.6-0.4,0.9-0.6
	c45.1-28.3,95.4-42.6,149.7-42.6c98.8,0,187.1,46.3,243.7,85.2c12,7.6,25.8,17.5,41.8,29c44.6,32,100.2,71.8,148.4,84.5
	c1.1,0.3,2.2,0.4,3.3,0.4c7.7,0,13.9-7,13.9-15.6c0-7.4-4.6-13.7-10.9-15.2c-47.5-11-101.4-55.9-158.5-103.5
	c-61.2-51-124.5-103.8-186.9-122.4l-0.3-0.1l-0.3-0.1c-23.3-8.7-50.8-13.3-79.3-13.3c-42.3,0-84.4,10.1-118.6,28.3
	c-37.5,20.1-64.5,49.4-78,84.8C351.1,958.6,353,961.3,353.2,961.6z M353.2,961.6c0.6,0.7,2.3,0.8,3,0.8c6.2,0,16.8-4.9,26.9-12.4
	c0.3-0.2,0.6-0.4,0.9-0.6c45.1-28.3,95.4-42.6,149.7-42.6c98.8,0,187.1,46.3,243.7,85.2c12,7.6,25.8,17.5,41.8,29
	c44.6,32,100.2,71.8,148.4,84.5c1.1,0.3,2.2,0.4,3.3,0.4c7.7,0,13.9-7,13.9-15.6c0-7.4-4.6-13.7-10.9-15.2
	c-47.5-11-101.4-55.9-158.5-103.5c-61.2-51-124.5-103.8-186.9-122.4l-0.3-0.1l-0.3-0.1c-23.3-8.7-50.8-13.3-79.3-13.3
	c-42.3,0-84.4,10.1-118.6,28.3c-37.5,20.1-64.5,49.4-78,84.8C351.1,958.6,353,961.3,353.2,961.6z M210.8,1186.2
	c0.7,7.2,4.2,12.6,6.8,12.6c1,0,2.3-0.5,3.8-1.5c128.1-99.5,244.5-147.8,355.9-147.8c96.5,0,176.3,36.2,246.7,68.2
	c49.3,22.4,95.9,43.5,142.5,50.1c0.7,0.1,1.4,0.1,2.1,0.1c4.3,0,8.3-1.9,11.5-5.4c3.1-3.5,4.9-8.2,4.9-13.2
	c0-8.9-5.8-16.6-13.8-18.3c-33.6-7.1-69.1-26.3-99.7-43.8l-4.4-2.5c-102.3-58.9-208.2-119.8-323.6-119.8c-3.7,0-7.4,0-11,0.2l-1.1,0
	c-57.9,0-135.3,24.2-197.3,61.7C291.4,1052.4,219.1,1107.2,210.8,1186.2z M210.8,1186.2c0.7,7.2,4.2,12.6,6.8,12.6
	c1,0,2.3-0.5,3.8-1.5c128.1-99.5,244.5-147.8,355.9-147.8c96.5,0,176.3,36.2,246.7,68.2c49.3,22.4,95.9,43.5,142.5,50.1
	c0.7,0.1,1.4,0.1,2.1,0.1c4.3,0,8.3-1.9,11.5-5.4c3.1-3.5,4.9-8.2,4.9-13.2c0-8.9-5.8-16.6-13.8-18.3c-33.6-7.1-69.1-26.3-99.7-43.8
	l-4.4-2.5c-102.3-58.9-208.2-119.8-323.6-119.8c-3.7,0-7.4,0-11,0.2l-1.1,0c-57.9,0-135.3,24.2-197.3,61.7
	C291.4,1052.4,219.1,1107.2,210.8,1186.2z"/>
</svg>
